<mxfile host="app.diagrams.net" modified="2024-02-07T22:28:16.430Z" agent="Mozilla/5.0 (Macintosh; Intel Mac OS X 10_15_7) AppleWebKit/537.36 (KHTML, like Gecko) Chrome/120.0.0.0 Safari/537.36" etag="uvx5Y4yEc-0S5irfBoo5" version="23.1.1" type="device">
  <diagram name="Page-1" id="_jROLVlheeoakLUwcGwN">
    <mxGraphModel dx="882" dy="562" grid="1" gridSize="10" guides="1" tooltips="1" connect="1" arrows="1" fold="1" page="1" pageScale="1" pageWidth="827" pageHeight="1169" math="0" shadow="0">
      <root>
        <mxCell id="0" />
        <mxCell id="1" parent="0" />
        <mxCell id="jvZWQ-nRbjcO1A-R8Qbo-57" value="" style="image;aspect=fixed;html=1;points=[];align=center;fontSize=12;image=img/lib/azure2/identity/Groups.svg;" vertex="1" parent="1">
          <mxGeometry x="100" y="241.67" width="68" height="56.00000000000001" as="geometry" />
        </mxCell>
        <mxCell id="2b8aMbZm-iuNf0F6zws4-2" value="" style="shape=image;verticalLabelPosition=bottom;labelBackgroundColor=default;verticalAlign=top;aspect=fixed;imageAspect=0;image=data:image/png,iVBORw0KGgoAAAANSUhEUgAAATAAAABnCAYAAACHBx4IAAAAAXNSR0IArs4c6QAAAARnQU1BAACxjwv8YQUAAAAJcEhZcwAAFxEAABcRAcom8z8AACPZSURBVHhe7Z0LnFxVfccTKtjWR8zu3HtnY0oQsbbUF2Cr0lY/tr5aq2gxVVuFFmwqgd2Ze+/sJoHAIuCjKpUqahERFBUI8kp272N2N0uCkAAhAg0E5Gl4WYSAQAKEkO3v979nlp2dO4/dndld5P/9fM5nZ+fcc++55/E7//OcOYqiKIqiKIqiKIqiKIqiKIqiKIqiKIqiKIqiKIqiKIqiKIqiKIqiKIqiKIqiKIqiKIqiKIqiKIqiKIqiKIqiKIqiKIqiKIqiKIqiKIqiKNPDIUs27W11Xvp6qxC83nylKIoy+2jrDF6d6S6+wfGif4BbnnGj82wvWmf3DD1keeGl5jJFUZSZpf3Y4oKMG7zHzoefs734K5YXXW65wW0QqqdtPx5xlg2POMdfPeIsXz+SXblxxHLDNSaooijK9LDv8r75lhu91cmHH4ZIFWw3OhditAkidT/Fylm2biR7wjUiVE7P2hG7MDBi+0W4eATWlzj6UeDMLRVFUZrLQveiP2jvLi5w/PgdjhsfbeXDb0CsAgjPzbYbPuksX5eIFATLWXalEavBMqGq5lTAFEVpGh1LVv8hhOpNVq7vH2FNrcDnsyFSP7e98FF0B/c43YOJWK34uYiVCJVXX6iqORUwRVGmwtyM1/9JpzBwBiyrtegS3gNheUzGqjhORUerCsKVdP/gpiBY450KmKIok6e3dy+I1r3ZE68z3b9hiNVQMl6VIjjNdnUEbO6i3uHfN58VRVHG0TtCAbtFuoMpAtNqlyZgdn5gf9sLem1/cA2uWQ8xvcB2o3/nWJy5RFEUBYwK2HCqwLTajRewecvC/fD9bdkTNo44K66C/7qRLLuxK9bTKlyHuB5gLlUU5SWPCFh462wRsEx3eLDthbvsArqxY6/1i7IkA5bZDQt7ozZz+e8EHd5wJpMPf2D58WWWF1/ONXTGS1EEa+mqV2aWXX2Qne/b33ylCBQwb/YImFXoexsE7MlkdnP89WZiwQ1XmMtnnt5V+2T9vkVWT3Roxo//zvHjjyA9P2h5fYc6ueH9OKtrrqyKk4PV6Ya7uKg3e+K1I5mu+GjjpUyZkblzeodfNmfJWXvL3zS3atXvmYtnJW3umtfCyFjn9Fw5YnevfQSN3T8ZL0UELB9sfXEIGK5Ht9J2o6soHCbIjGC7xXfafvxlyw83IV6PwXJ6BiL0POK+B//vxjs9A//HENfbnZ61Z0Pc3m2CVtDRNbCvnQ8f5fo5TqJYuegI46VMEScf/lnGDQdh3W7A36srnB9fjQZnHXeDIM/OtwsDJ2b84oe59c3cYsZBvArS+ygMyHAK/r8JwquTW0LShXzxCBgqOIRi6/wlA/NMkGnFOS5+neUPoKAP7sgen6yFK3fDyUwuxah7SP5mT96MuAfrzS0qUAFrHXZu4F1I2+fT82qsM4uxIRA2Z+G96NZMLsjPOfLcGRcK242/TOHiMArjiLjd2dFb37J/abB41e9ZbnTbi0XAWLhg7TwMQfhbE2TasLzgryy/eJd0YylOLPgsUG74HOL2W8T7UXx+HA3CU4yrVAhTKWCpDZrbVKAC1jqcXPwO5MmTso7R5En2hA0yniqOeUlx44QR0r+01rG0u8Ry4zWZ/CUd5nYzQpsb/YXjFx+SuKLMZfLxicZrVtDWef6rX+3O1Li0CFjw4hEwFjCKmB/vQLzPyHYGlgnaUtr84ECY8PdJFxamPAsS4rIZreNKxx1877xcuB/j0tYTLGS3Be/wUXQfT7IKxXWsIOimbDC3qkAFrHW8IGCwqkScogj5ciby43toaM7B5x+hXF3E71EO77J95C3EK7k2FpFDAz84UxZ/CcThrRDTFVkvXCzjerMAyxtAgx5/0e4e3Ip09M3X04wIWHj7hASMLRS7SbQuuKVIHJc84H98nxqmihsvYBkvOEgsmDQBk8W1cVKw0Bplj+esZPE6K9f3NhO8NSRptEa6F3z37sE9+Pufi3KXvcZcUZ3O4OUZd82nUIm+bL6pQAWsdYwKGK0rWGGcaDFe5fSO7JXJhx0Qig9lvPhyuV4OH0jKGr7/orlSAQf0bnw16uSW7Ek3jGRXbkD6BMuM1zQzQQETgaIF5Ia3IlPPxncn8Hwvx41Pw3dn0dLAd6jgjW03SrfA8P0ytoKJWNGJSY/v8MxTrHz8AQjZtSKaHNz04wfZvTO3aDpyNJAXPc8KIK2zG59jvJqCCljrqBAwL/qk8arOyMhchFmZbJ9D+WNYN9zOBdbmipc8C91r2mB1oeeWHOCAut9tvKYZClg+akjARFS84r2WH34WL5C6Kt5Bfx2CtLNqF3CcGy9gnP1BYfkawqNCvzAYjv9vg3D8h7lszrzlffO50ZxxSgY44/vYdTPeTQXx7E1mgQYZ151t/uCBxqspqIC1jkkJmAGV8kKWz1IDmnGjvPF6ybPv8qvmQ8BumRUCZnvBL+sJmFhefnw/zOyDTchUrFz8NhYYFpa0+4x34wWsBFs7q7D2cIjU0bY3+P4Ob3XGeJXheP3fEOuMYxX5cIO1dPiVxqtpcJxEuskUFzfY0uxnqIC1jqkIGMr6X8PSf+6F5QvhT4zXS57ZJmB31BQwtkA9QyPt+b7PmlBVsd3+N6PAPF6a9annqglYw/QOvwyiclHWjMVl8kGv8WkaiOdFySwVxMULb24/6vJXGa+m0KiA8QBJjtNA1O2mimhn8PL27stfNX/ZwDzc+xXm26az6Mjh35+zePGEFo0yPvNyw6+RdVm9vXuZrxtmShYY0tjygnskXzh04IXrDkBaGe+6zF+yap7ddYXDPMuuCKxWpu1ESdL1stdMNk69vSN7OV50s7NsfWlo5zjjNc2IgIV3iIWVIjB0ybhPuGlR75g1MShMjht/CoXimxCg/4JwLOGK8rae4p/iZX4j3b6Ue413UxYwYBX6srjHPTJj5MePQoz3M15Nwc5H35cpbLTEeLen4Jq6H7OWgHELCQrKUei+Xog82AoB/TXcr/C+11vewHerDkrXAfd7C2eObL94Dt5nGHlxA1rR/4XbaBeKF9p+5DM/zeW1Wbxqn4wLSzkXnYB7nmR19h1qfGRIwCnEx6Kc/Ax+6+3C2n7k0ZHGOxVW+HY/Xup0D5yPd70WcboFZfRGy4v7LDc+jcMU5tK6TEXAksYxWk8LQ2ad3WgzK73xTSWbQ/n3wh6k4cWI903I1/vx92Hc516+C8oQx43/hflqgtRl3jF98+187OJex6POrWjPhW80XhVkvIE/tvLBcl5r5aMCxd94zXnlktUZO1/8vOMXf4L4XIcytAUCzTj9FOXg89nOi2rO6OO+H0D6HcUhJF6PdH3A6UaZTcbEL7QL8Wdw3yPE+cGRzOcFywfaTfAW0YiAcZ2MG51hQgiOG55G8eGma66r4TYHvMT/mQL3FGfr0u413jVDwIjt93+ehZSWGBL2O+1u9F7c99BqXc+JwBkWM84mrU3G6/+K8WoKFQKWD8XSbXODdzr+4AZn+VWyxUjWnyG9ShVKZmG7h3Yjvc9qtCXlZAcK7GUQsMdpVZavhYJjnvIznV980HH767asFCnE4YGOkzaNdHzhZpYVmbHLdBXfgHJwFe+VLCRdN5LFNRCCiyVgJXNRfo5Ft+2epGwlcRvrnBOQD4VBNCLxdxcce2ndyjElAeP4sBsOldIb5eCGaiv0raV9WbzrN+G2i7XO92VeiUsmoOT9+Q7s7fjFX9hu8HETvCbt3UNv5Phrx4nXibML/f9svCrIeH2fZn3kdfJsP34dv7e9/o/Z/sCtrB88Ootpm+Q344TvEGd0lbcg794rN0oB778+WeiL3pX0sMZM1BW4vInfw3Cho56wjHYX326CtwgKmBvdWbULKd3HteiahTkTQkCYXzIByq6jGjPi+Fx2jxqOidwMAeOkguX2w9yXwpE4L9qFjL8VLcHJU1m5nMmvPhj3elqsSmSSVRjY6TRxP9p4AcPnwzJ+3yGwOLazwrNC4PlcKPsAKtRvZB0a0k0KEAq2WJ4QMXO7qthd/e9HWuwUIWSFkr+omHg35Od2VPTHR+/N5SJScSGodUSM3U/Zjoa4Oytkq0uB+YH43cD9nYlQcvEoHN4H4vNjE/QFVkEsvOh/SmKRVHqxen7Llj5572QlujRUFO9CPMwumrlDKlMRsAN7t+wDa+ImeS+WUzcalD2V4+ABBJZfvEnEiXmINJM8c6PnJd/c6HHE4TmeqCLvJGmMXk332t2227fS3KYq/DWvjBvuYPkTa8cPPmG8KkBeHS55h7qI8rKLDbiVjz+Bd9/V0YuyhPghLR9hmjK/Ja1NnZU4+/F2Oxe+y9yuDAjY9R0n/2K0YUnqWCiO95HvS87s64WAvsMEbxFsZbzwLnmJFIFJEoMmYrzUhBDQelzCiKaGmYBrloC1s4UpDEkFFAFl4pqCkiR2FC04dvLmrHQjUQElziwchcFn8F3vZMcQxjJWwBDvPShAK1G4NmV7b2CXeCsKbxcakIP5uwSZrjVvQH4tRmsaSWVgweM7Q8gyudrdSSvX96+JFcCFtTx1t/hDFL7PZf343ZzB5QRMxg//iV21JC5svKRwP8ZKZG5TgQgYTzQRAZOKm0d8j8+edD3SK+az+vA+K7kQE63zxUi3/zZBR8H7f1vyiZWUlduPN8NaPCbTGRwkv3IFaw5p8QnbjddI3PDOLH9Im4vnvGf4ZeY2FUxFwHjyA97lCWkkEDdYxt8zXqMsyA29Eel1jzTmrCsozxkvvgPPOSHrBn8v6xo5seVF72e64B02JPmGPCu9ay72zO1SMQL21MQETIZwHrPyfZ9FHjwuZdePI+T3p9sRZ6YpBPmtiM9SlOFfSpwgREnZCDe0d/+8YpzX9gMXZf97yIPvIE3PQ/jtLHt0yP+NzEM2QmxM8ReueBYPOjDBW0RdAUuUGS3sqSaE4Phr3gS/baXFnalhG3DNELD5XvRH6JdvY+VMewbfQTLQjc40QSZMMs4WXyMtPwUSlUHijgIJwfmouWxSjAoYC2c+fJ4tpHSFvWIfTyIwl5XzoeDlePaPpQLgHdllQTquMr6pOF3B0aiMe3Df77d70Z+YrytBmcj40bnJvZn/rJzRSca3gjIB4zt44fmIy33oQjxGsR0/+L7vMX3z8Wd0NTkq3RFS/lhBpSIN/IDjPsa7HJ4gXIhO5dosB8IieZ4LP218K5iKgDm5YJnEhw0E4tbuRmVdN7Ey3Wg4KRMQDRGm4rntx16+wFxSgfQUCvEXZDE07ysNRXFHra7WZASM90aePIu8vo/dQ8uPTmG+msvKWJAL34iyJPlXeo+sGx1uvFNZeLq8+xax5Pne+cA1XtMMWq+aAgYnBTgfhibEKPPZahcG1lLgjOJP2DVDwGA99LACS5cq5Rl0UoBhzrd3Vx8ArQcHl9GNCZzj+b7o71PcWclZEAvF1ba3elL7M0sCxgomccX9UZA27XvMVemV2ICW00Yh3TbadXeDbW09wULjXQEtAg7Amn9rAlFagEK9TUQJhRQV/xrjVcFYAUP890Don5B0d6uP1ZSQd/Ciu5iOSVkIV0OkqlpUJfC8NbxeGldYDNVmBycrYDKbzjFACiUqaMYL7xg7IE5QaZcwDlLpeeCmF/6gmkiMB/lwciJ4KEM0AmhJjqRvEZqcgNGoMFuh8v11F163c+tb99Du5F2Qpm5Y2c0fw/7LBuZBwF5YRpEPCsZrmuFMSx0BSyrowFMZPz7EhBrF+cyPXoFMWAml3yGZmRa+hmuGgKHghCVLpKqTlmWYFlPNGbB68HwvFL7T8M47E8uE41DoziDT8Yzdjhv9lONX5vKGKBMwprU/sLvRzeooOKeXKhHC7obI/rXxmjJI1x/KuI2IIyyqrsHU8aZxApY0eG5wifGuCe6bFyESSyR+pNYM21iYPqikuyScGz3v5PpSx1rGCxjyv2rlL8EuNeJyWyIwKDeIHwTsc8Zb4G81IH1+IRVYJrCiWxraWmaQ8TUvulIsSIqSGz1lF4K3GO8yJitgpXxjd9F4V4fxyQfXJnnBcc/w9lpLRmbPOrAlZ+0tLWAtAYOTSuKGAdcMmZBl2F3B31pucatclxK+muP1UxUwhN9Y/7lJVxgFocsEmxLcXgRLY60M2LKg0/qD+BhL8Ek7H32pajdoHGMFjEKMBmXt+G5XNdrzwUekEog1CMtwIrNsdUAFzYkFAoc4Pep0rXmT8SqjTMASIR1pz8d/Y7yrcsiSTXsjvhuk0rAc5IOKMaZqLDryXAgI1y8mEw0cnzFeZYwXMHSd/4WboQ9cvGofPp+VlEsjaJkjDw5D9+5svMvTiXiVNnP3/3R8fuDa9+Fdn6MlLu+dDz9vvBoGonW4xIt5B9GvVjYn24VkmiLcN41XXZDf35LZUz7DCx+DdSwzmGnMIgHbtDcefnc9AZNETjL1HBZYE7qM7NK+RY5f3FzXGhrjmiFgSMhL6goYM5WFLd/XvNMse1ftg0z/HFr1raOWCoUMBUDGHbzidVwKYa6uylgBk4FsN6w7M1WiIx8ejML2NAeaJQ38eInxmjLsbkqlYSXzIAJV1l+NFTA6fN5abbnBWMyujScSkZQxpqpT+GngOZdJBWKj4Ubnmq/LGBUwpC3zBqJxL8rDDfh7E97pRpS9mxD2NqThryUNaUnTCpa8kEmq1Qf0Vr4LJ3CYV7wvxZ3jsMarYZIhgEDqnjRcsN6NVxmTG8RPrHn+b7zqgrToTPJCZiqfynRV70nMppX4++Dh9QWMjgmDioqKuTGTX5PaVeEiRhSE3zrjz7Sv4pohYChA/5pUXohUyjPoTCI/wHEsE6xpyFS1F/bAIruXwsXB5ZLFZxUGH7bdNTXX+4wO4kvhYWsewEpoDFoOePbDMg7GNECXzHg1DCrSKzjDCevjL2EFHYmKdAoq/XkQwxtLlYEFutr0epmAwZKw3PhC41UTWLGfkrEv3B9dtB12V/R+HsMtFbaGQ/wOkK1mImCwwJIJjD5z2zLKBQzlgGmMdJLnlv6yEjLdabVQJGRiKt7l5MNvVNl1MRfit4r5K9avGw3POWtTxfKKRkBarWGaJctVos1pR+XIe09YwFD/3HAP8rThk1psr/hpCUsB86Knaw1HzBoBOxBWBB7emIAZJ5XUH3gSmZxqtlv5/gukMqWEHe943VQFjK097rW+6jNReKVl9Vt7ZpGcXe7FX7cLxZ1SsPFs+esPPOHk+6t2qV4QMGPBeY3PatrL+/bH9feXKmZDs0G9I3u1Iz6I10qE/RnFB5Xnt4jvrlLXg7O2JUt6IgLGcLAqTjdeNcF1yQJh5pHL2ddoBz4/yWc14iS+jB8bCooIz7cfR4WAUQQoehUO4stK78UPoTyen63xwyr8eT9ccw3HvhLrL5z06SQQgTNFwJj3brCNjYnxGmXyAhY9Z7lXNLxrxHbjj0vDmwjYM7V+XGbWCBjHAPDwCQkYXanCIMFOHt9qWLn+IyQBOcCdEnasa4aAkXlcs+MXb5fnshIyfnQcUIZ1wsHuRmeIpgpXM+Pdt2ZLAiBWSbBlUW/5LFaJcgHD9X74YeNVF65VQvrdV8oPx41rjvFxrRi6vFcirXZRbGTRIUREVsrLX7prSuLF8/33TEjAENbKh18wXjXJuNF/SsPCsiBDFBxPTCpEQw7vLF09GacKN6UtVn5BwFgei8yHyy0vODXjRV+CKHwZ4U6DiJ/ooPskhwYgL0zQqnDMDIJ5G5/PZyO//8t4TRgnH5wq7ywCFj6UtjB30gIGga81jjUelMHDpPzhvUTAXgwWmAiYF9UVsJIwVHznF/kDFqN730i7P/DnYkkgIcden+aaJWCy8TbPUzVQ8dzwaTz/Qdz/PnRnL5nqOq3JIIsgC8WtzFxp1SikY44DGkszBQyfO41XBUgHz+4e2iWD/aYLBYvxaRS+bXjuegjPT2DBfTXjx12crWPXHN/vkQLdoIDJe3rRCcarJhCB0xMBk4ZuNyoEl19w5f0TE3HO8iufwPOHagqYEbv2QniY8Zo03FSP592VCBgXN8eT3lqGuK1MxJgCFj1kr6ic6Z2KgLF8GK+6lAkY6pCVj//SeFXw4hIwN2Ti3gn3bNIyG8tKZk/Q6vtxWeQ5HZz4T6OAoTsiiSlCEfkUtJn+4QO7EL4PlWaHTGkj3ZDJxbS1Pk0VsCqnAqB78nEZpJY1YyigfvHX3M/KY4EpQOxWmktHYZdY4oN4Ie6NC1iDkxC495dkHCmpMHfDOnw3N0M7XfGbJuLsnuKb5bDBlJnb8QI2kYWs1aAFZntBYoFxoD8ffst4TRjc50tjLDB0IW9sXhdyqgI2zjAZy6wRME5HI6LJHkIjKmWOIsWtMzy5QM55j2+XQscWnIWVCZqPP2BuJzj5+G9EvKZJwDqOi/4EFsOv5WhbLgnxY9t4zTgoFGGpkqKwPpg2O9dcAQvKtnwRrlnCNddLPFiw/fh+/lCE8a5KW+fggRKfVgmYH/nJTB4rW/BgK/KtFQLGY4Fwz6vFcsL74t05aZG6CLUesHLP4j2MCGxOa+BmRMC8cGe1/CazSMCkcNcWMEQSLbucec0+OhLpOIS51PIHrsD3R4wfW7L9xCwetdRquKkKGK0sxGEw2Zgs3cfUbtpMgfh8TQpoUigeTRtjaaaAIe0r1iPRskFX8TnZerMc+dKowMhvX6IyMO4tELCM1/9JyTMOTfgDu2HxNXxMTqO0QsCI5Yc/ljVTSdrcOrkz4kY4mxlL+UjGHH9kPMqYGQGLdqBBqboRe9YImJlRqS1grBhuUHUv3FjkaBWPe6QoYCn3G+eqCRiPfbHyYQ9E8mSKEkSqYjaFZyoh7AW0LGQg1wsv5QJF4z0rsPLB1+WwxaRQPMyD7YzXKE0VsBQB5ypyme0TaxqVwO1raL0Vl1TQwjaVtAUCFhyESvAE14CxImTcoOlHNrdKwMR65LuK+HIceOK/ydDRtXpfvP+Dsq+T28fyQeoavhkTsBpW+iwSsGsaEDAkrhs3VCghNKeb1qQhN17AZIbHCy+we4Z2yowYj2NhK+3Hj+D63tJ6G2aM7Q/2i3jJZtrwRq5lkpvMIiD8l8gMH7eb5MOb35My1d9cAYv+3XiNAv/CqIAVhkYyXZVbwtJAd/SnvKdUmhYIWDL+Gl4vz0AeI302NPtn/lsmYIXgLVLJKSpM93z4Q+PVMLKXkieaMm5e9IjVGbzeeJUx/QImQwY7sl3BnxuvCioEzE96aNOO7O1zw3urChhc8kLROv7+4cIqP2ApA75u/E1JONlImn6v8W68gHEfIczqPTYq/Oh1rHhSOa5CQoXfYMbjmvtl2h+Wl+0N/ALdkT82t2gqtPIQh4/tv2TVhH8XkL8lafGEWFQcxhUWTcUxMqSZAua48dHGaxQU/i5JJ0nHtazE/2C8qtLWwx9nKT7FSj+RZRQTETCC/FzBfJWJju7h5y23r2IMrx7MI/OxglYJGIHgXirvSyuse+0zmQnkG492QvpCAK5MFs664XeMVwUzJGCpe59LUDdQB2+UsXAaGG74NeM1vTQiYOKQ+SxkqCxbcP05eLmVTj7o5OwfxO1sfP8rsbx4zlFa+CpuvIDV/GFb6QKxQiEjkekiaF7U95qlP1tkgjedZAA8vNbuGd5odRcXM72MV03mU5Rksy4KKAtT9+BOx0/fcNxUAfOCo4zXKO0QYDkhkwWbXXuefFCDBd5lf2TzMEJWLManhQL22p5gIZ7x4OhC0u7Bx/D/x4x3TTLHr+uAFXAerNzPmK8qaKWAcQO5VRhMhEXyLr6v2qbysfBXrFFnVo9Wfi75qSE0MyFgrIMZb+Ag45XCyFyUu/Wsg1Lv88Fa4zG9OH78CiRmfQGjY8LgOpk5YreIlROVRv7nTGVamDpuQgImjiJGK2/wV7Buulu9OJWnBuC5V2ZPvD45ONANtzp+8XQnH38km+v7U/4QBruFMplQ6MvahfBdqMzdCHOniAXCMH0y+f6vmltW0FwLLPo34zUKt08hTqaBSdIP1sPXzblcZcBK/ADifINYbG64Ce5Zub5FAkZw/X8w7kwrERpWPC/4ahYWrLmkDLsL3bd8sBwWzN08HjmTiypEu0QrBYzgvcWCTM4mQ1fKix/h+BjqVcUCUlqK2Vz/3yEPrpK8kvIx+BzepaogkZkTsKCGgCFe3Pxt3h3P5Km+ZccncUiHZcP82xomJGBljgtVjUv1b8xNVMCSjCnex2OeTZCWYgTselmwSOtPKimXI8jA9v8h7lvojzjfCHcHKsvTslBUVpVzmp0nYPSfV+0UD9JMAYOopx4XhPzyZCwzGXQ2lS3aggr9PxzfhCV9Bv4fxnW7O07eTIG7sj0XfhTxkSNrWilgMhvnBmeKVY00Zt4n5SJ+GPcdQrqeh3h8G9dcZPvh1fi8XQQAacsxUpTfCtEu0WoBk21ZZtxX3p/5QGHy422o0BHy9fsZN/ounnsJ0vcmyV/GPcmLZ6sN3I9lRgTMjZ5Aur7VeKXCiQs+S+oqHMoeRCwMEPZM5NuF6Ln8cr6ffoJJ05i8gDXHTVjAWPFQWdpSTghoCbDwUGCWorDdK60sKqgIWEmgTEV6wfEHLLikg2N4A3ejQB1Xz0rM+kOLUHielQkLWkkTWC3OvW5Iv+1cA8fz5lFR0q2RJZv2Rrp+O6k8tMQoYqh0/F/eY538RDwtGrtQ3MyjgLP54tt5jXQluVcx35+6Mrut83z+qMev5Bz03s2wAoNTjFfD8GgbxO8riNdziZCxWwYxYJpKnJN0TrY80SFOhYE9KLtXpFk7JazO6FA2tnI+O96v3Y2rdjenAtffwTJ/SGacx8T3hc9JuUi2aYm1eSMq+AdN8JokG/aTo33oMn7wKeNVgSxNYTrhuqThaXwvJNLy8KQcbGR+7+FpIcYrnd7evTL54Fuyb5Z5xQa+9M58V8TByvU1vJl8UsgWHHYvXiQCJmd2u9EQC7wJMi3IiRPIYFoKVqE4RNFHvHeVKprEjz+KwRMcvOhi+B2T7axcMpEGDwpE1y+2C0PXItyGjipCkYZsIPejKxjW7hm+DvH6kPFKBa3kUrt76JbEUkjGYEpChkr1GwjImaUTO2SMx4vuxvf3oIz8b7UxEek+58MLJA7L1jEOVS2ievCHR5D/P6P1JRYNxXWMY8VCGt8Owf9hts5vABAenY34XO4UhorIt2LGLVbdoDxVrELwesuNv2gVBpiPzySNXPIOXCqBeGx3/MEBCG5XvZ9nG4scme6Fa1EnNtI5fvWDAbhEhqfFyLXoqrJ8GK+6ID3fzfIn5dCPBu3lA3WttwMXy8GMp8K6fbA8r9bRIrvLOa7xvZiT4kUlYLQa0JKlrTafVmBRSaHijyJAbLhnjDM2rCzzljd2iGE5I3M7ejf9IcdIaBFPaFwPraBMxCBs+1Hff1XaiQzjSX6phr/xV8zhHU5BQV/pdA98kj8YYi5JQLeXFaCt85KFFDWeXGJ8KpDlOBKHy19Fa898PWnEskQckR5Ho3x00rKEkB7GdK52Mmx1uLq95FoP65RspyuE74PwLLb88B95soOcNjuZMVvmMRsJpC9dzTyGn/SqSmUpZXtVVcaEZXmcSNh5x13xOoT9iFWIjuFiaojoB9sbOQl2qsj4hTd7BKy9u//t7K5wAWXZtRwMp2mbDyJWFnO5oigvZWabgLW5g6+FVXBN2fgBXTJIeGG93wFUFOUlBH//Df32bbNFwAh//cXyi5+1/ehcdG8vg3CdYeU44DkBc1hRlN992jo3cu/i4x29N0BM1iXTr5waleURU1si0YhLEzBFUZSGOGTJWXvb+f6c0zN0lu1G6zI8VM0sFpXZKXbl+FeErfmCpgKmKEpT4LaZts5gITdx2m78Ga7WtrkwzY9vRFfuER7NLOugaKlxqpTLBzhbSIstRZwacSpgiqK0FI6TOfnwzzJu8PeOP9CFz9+DuG2AxfaA5YU7aZ3JwjmKG8fSSqLWgMWmAqYoykwwd8Fy7qiPDrXc/n+z/OiLnCXE/zfDWntK1mxxsSS7oHQibNzoXS5qKmCKoswauLl5Xi7cj8dM27nQs9z4HAjbIMTqTnRHn6NgiZMV4FfCcuPPcIVrTHBFUZTZR3JeWPBObqaFmPWi63mp7cZb7WXrtvOzuUxRFOVFwuJV+9hu/5sz+XBaTpZQFEVRFEVRFEVRFEVRFEVRFEVRFEVRFEVRFEVRFEVRFEVRFEVRFEVRFEVRFEVRFEVRFEVRFEVRFEVRFEVRFEVRFEVRFEVRFEVRFEVRFEVRFEVRFEVRFEX53WbOnP8H8sLpoa6yblAAAAAASUVORK5CYII=;fontFamily=Source Sans 3;fontColor=#CCCCCC;rotation=0;clipPath=inset(21.57% 2.33% 23.53% 25%);" parent="1" vertex="1">
          <mxGeometry x="385.95" y="322.25" width="69.09" height="17.75" as="geometry" />
        </mxCell>
        <mxCell id="jvZWQ-nRbjcO1A-R8Qbo-73" value="" style="group" vertex="1" connectable="0" parent="1">
          <mxGeometry x="520" y="170" width="120" height="79.99999999999994" as="geometry" />
        </mxCell>
        <mxCell id="jvZWQ-nRbjcO1A-R8Qbo-69" value="" style="shape=callout;whiteSpace=wrap;html=1;perimeter=calloutPerimeter;rounded=1;fillColor=#CCCCCC;strokeColor=#CCCCCC;" vertex="1" parent="jvZWQ-nRbjcO1A-R8Qbo-73">
          <mxGeometry width="120" height="70" as="geometry" />
        </mxCell>
        <mxCell id="2b8aMbZm-iuNf0F6zws4-13" value="" style="shape=image;verticalLabelPosition=bottom;labelBackgroundColor=default;verticalAlign=top;aspect=fixed;imageAspect=0;image=data:image/png,iVBORw0KGgoAAAANSUhEUgAAAMYAAAAvCAYAAAC40LUXAAAAAXNSR0IArs4c6QAAAARnQU1BAACxjwv8YQUAAAAJcEhZcwAAFxEAABcRAcom8z8AAA4ySURBVHhe7ZwJkFxFGcdXiZhk3iTeoOCtKKJ444GWlopaKmp54QWKind54H2mUDDJ7OxuLkKCeKNCtCwFDzwjosQDBbyVJLuzVxKSkABJVATG/293OvXls9+8N9nZJFT6X/WrDfP6Xd39dX/f1/3oSUpKSkpKSkpKSkpKSkpKSkpKSkpKSkpKSkpKSko6ePRw8UnxcfExcYZ4tkhKOqj1GtF0LBVJB7juIs4V54svia+JT4tDRdLU9QrhDaNPJB3gure4RdiG+5uYJZKmrphh1EXSAa4jxHZhG+4KMVMkTV3JMG6jSoYxvUqGsRc6RNxu8p9TFte5w+Q/O9JcsU3YhvuN2B+6vZgx+c+uaW/qpJ14PtqtrLphGNyvk3secKIR3ig+JN4vPijeKioi6NGClN33xS/FL8S3xHvEkaKsuOazxALxHcF1fiV+Jgig3y0eKmJ6guAZTxc8y7+EbbgRwfH3iQ+L14mJhskGxo/Oao23zK6tP2V279DJE/SNnjpnQeMEjneoO4uXCLI01Mdlwr/DQ0RZYViPFx8V3xA/F+F6Fwja4xGirGgPsko838UiXI/n/In4qqCeHifyBri9MYx7iJPEOeISwf3oKz8WnxUni8NFnkicnCpsP3y7sHEjfYP2/6Kg/71LUH/TIjrrsLCVsFkwKs8WA2KnsMctg+K1okgvFpeL2DUsN4iV4r7C6hMiVj6Pv4o7ip5ZfcNHVHobl1dX7Ghm/WNivJkt3tTMBjbsmjN/7aspU1JvEFw3dj/L9YJ6I3vWTk8W3xb/FbHrBKh/OsMDRJ4ywYAxLmLX8HDPb4rYQNSJYdBHPiDWCX+Oh75Cp49lD+eIa4QtTz1WBYM3WUfvJWDw3Z5ddwvD8C/FC9xHMALa3/O4WbxSxIRFnyUoEzs3j6uFHSkZUWPl8viTmDAMdGh99KjKwPg12dnbm1nf6CRLtsg4xrdmC9c9tVUsT4ysZ4rYfdrByMkAExOjIYNA7Lw8/iIeKbyIrZhdYucUwTW9wZU1jLsLZn5ftgieFUO2wgB4Fltuo+D3XvOb5adiWg3DWyoPuMT9xgjTrnM3RMytYuU0Vn6H4D4EzWOt3zwYx2EC5V0njz+K3YaBstra4yv945uzJZubWX14guqy65qV+vC66sK1D24Vi+l54lbh73Gd+L3AZfiniNUPjep1mvDpZkvsXgHeC7fF6s0iVnaD+K74nFgl/iFi5VgTsm5VGcOgY+Oq+XKAx3GluEpQR7Ey5wnrBmEAfxa2DP3yFHGT+c3CjDFta1cxwyDjgw+PMTBrMBscJ54m6KBDwpYP4F9bPVH4WAC34DMCP5zRlAq+m3i5oCJtWegX6BhBJfEs7xC7hC23XhBXvEpQjs78f/5npd44SS7UTdmijbuNI1u2vVmpNdbMHRi8U6uYF76/vRfg7t1f8Pz4wZz7TIGh2HJ0ErJoQY8Ssc7CwMK74qc/R/AuLF4ygPiy1F8QgTV+vC+Dr899bWKAZ/yU8IbHM95TBJUxDGI5XwZPAyMllqCjA2tOxAWbhC9/ogiKGQZ1cqn571FBWywU8wX9YJ/OGIBREAzFRCeNnYO/bDuj71Bck06bp3sJZhB7Do12P2FFA3t/87eilCq1wdOrzBoDijUwjL4RzRxysepDF/asbPqKZkTyIy1umncFgo4SPpVM4BlEZ7fHAJcgL354gaAObHkGpjBrMLj4GRfj3GO2dLKdLfAUEVRkGAxkfnDEHWePVZ4YNPyAQDIgzFQxw/iPCLPw2aLdrN515RkGD9JO7xT+HFwjgjHES2wR9jgZkSIRpGNA9jyyZFZTXsfI6o2l1WXbJmONCeMYnXSraoO1VpEgOthaYe9Fx2u3yk6gSGdnJOfvSwV6oNgq7LWoezujxERwa8+BlwlElgw3jvqg4zHDhFk2T4y4/noYYFCRYTC42WPMQL6NYiIhYc/jmUPMFDOMgJ0h95lihoGVkh5tpwcJ784wcoVgk1HSHuOazxdFIsXqOyJui9XUF/jmDc6s1IYuqhKM10cmjWNgQzNbtKk5qzb4tlapIFKn9l68C8E4I2eeMChmG/6GfD5ZLXsdoNMXCdeELS8Eo8QN1wpSlYhrY3C4pgxGRwsfg3hh/P45bNsUGcYKYY+RKs9zQ62eJHy8EDyIPMP4ndgvW31ihsHUHYLePDFS+ekUP5LfEb6sPUZHPl7gLuF3xiB4p9OTA7fn/kBYF2fqhiHNrg0eXukdvnJi5qg3Jlm8qVlZtHHnrHrjha1i6E3C3itAIEyO/r3i6eKuop18doWsFGtEZYQ7SWoVV+1hoqjzexFrkEUihiEWsM8BZQ2D6/xI2GO/FsQotF+sXYF2Z73GZ+LY3o5wTWOGQd3uF8UMg3WNooonR88Ubs9jRAszhh9VyMIw0mE8/G2HD9gZNeyI1BXDQJUFjWMqfSPrs8XXTs4aQBq3b2y82jsSZk1GLLI69n4enpngkE7D4lSsw39Z2HMILsnfd1PUP4kS3DeSIbgvxH5/EMw29v6WsobBwOeTJLx7UbuG4z4bt0gg+qE3DGYXjGm/KGYYTI1FMwaG4c+zhvEFYY9NBQzQjsZdMwxU7W2cKMPYNbHwh2H0NprV5Tcwg1w9d34jzIC8F777jcLeNw+ejzQoI2WQN66/i25tmzhWLBYYQLsFWYilissaBrOOX2+YCsy4KGYY1KGtv32q6TIMXtgew/rJHLH6vaYDOIecdwjqUfcMY15zRnXh4HlyoW4hOzVhGP1jzapmDblZZ/asavqOy0zAgiWBdSwF6WEPV2jcrwt7jEzOXhmzE+siPqj3EJgz0pNUic1+ZQ2DAYqsnD2G691puwKeQIiVYq4U9Vu0e2Da1G3DCC6Pz3zQcASGBFm4D+2gDBUVyvrO0z1XqnfozGzJVhmDyU4pINcscm7PvHnt9uEQWJOAIA2J68T2CtZS7DMFlgnEX/s7HYq1kDLiWbgnsRYBfVifYC3ALyySJSJOY08a6yGs7BOch1mXrJktD2UNgzr26d7VgoGrbNsGGETDAh3/HTOMorht2tRtwwiuB5kde4wZgwXCbihmGIw+HRlGVhs6LVu08eaJbFQrvqguv14zReOSw3o3UC+digAU98k+FzAzEKewIGV/p0PnbaWxYpBgtmGLCYkIZisWMtEPhb0mqe6PiHZGTfrTngNlDQPx5aQ9Rhax3bpJGR00hsGqt0/nEgiWEbt9aVx2WvJBPqOyVd6MUXoVVEH3CdnA2I7JoJuMlAxjIjs1etXM+ihZlCCMmY5Elo0ULau47Tod9eY38rG2QFaJnP2/W78FCNbbXQ+xK8CeA8wEzM4E/PZ3OldR3HKhsOdAJ4bhV70Z9Fh/KhKdnE2EtC07oNn/RpYNHTSGQSf1u2lxp4rWR54r7DngV8tjhkFnDPFNW1VqI8dW6qNj2dItrZlChtHKRM2eP+izSaQL7X2g3czHs3nDYJWeNQZWeWM7jHFt7F4lK3YZs2fMlud6GBqunN8BQPDdThiAH7CgE8PAJWbnqz3OvqWitQy2cdhzSBKELfoHjWEgtnTb40CG6UUiNqrhL3s/nU7ht19QWbH9WvjwdBj8Vnxeu09oQqxdZL2N1tpFyyiYNRZt3KEgnP1VXmwN96M8K9+PEV68u086AJ0V/xqxjuCPA9tnuD+7mqlbDInt/GzG82X5FgERn/gZg9kp5p5R3yy6+u0lgU4MA7Ho6st8T8TqhXcnDvP1uFwEHVSGQWPEtkPjW7Mo9HnB/32C3Z/sUPVbQQgiMSIvrkvnsGUDrA3QmRjB9vzAp294VtY3fPGeq93jGMWt2cLBvC0NGJf344Esz0WC58fV4l18wwZwCYN4dr6tiJXjfTF40rh5O47p+I8ViGeLbSBkNCfWYWESl4vno345Rqo2Nmt1ahgMQDynL0e9UF9sYsR1ZhOqz2IBa2V2f1iRYTDQ0Sfpd8H1pC7zZtopazoNA7FtgpHElisLPmie2NvjDcnCBrQ9Foc0Uyzb/T0GRtE/2qwu3dqs1IeK9uKwI5Y6id2nCN6dRrfC5StaMIzBiOs3drJnKlY2D7KFDAL+904NA1G/fpG3DCz0+a8niwyD2ZEsG2418Qmr/8Sf9N9pERf2oxOxQLvPEBEP7M9juR+D8SJbRPBKhdjyeeBOEYAXiX1GfnoOsBrLCrBC11WHzKqPnFFdsbM54UKxs1YxRfWcG5uza0MX9DSbRcEvIpkQRt0yMLLzeWle3MNozxb+vJnBw+gcNiN6cR0Ggth5AeIKfHxGWFbE/XG7BSbmAvN9TkwEzwTzfg9UHszksQ/DcLf8B3Mspob9aLQR8R4xKiv5DCxsSmXBcVpEp2WVmumPb5j5yw39yO/Fi/jzcJv86GiFa4O1s92Y2YUXp8EwKLYrcA1e3n/W2k7sUWLaZrrGf2YqJ/gltcnmOj5tPS6rNVZX+scvq9SGLgXFFmuy2uD5cwe2ldn8FkSsQ6chXclsSQIAAyCI5B14J9YPCKYxpDIi+MTVitUJsxTuGqnvooHqGeIrAheFc7kGLhXPiS9vt5XzzTq7fmk36glsUoTkAm1BapgyuGt8Z9FOtAOzCvEXA2uoF56BgY4+RYrZx4tBDNDELbY/YXAhNkMkZmjT1wt2d/Nte2wg7pqwRk8Z7e15+IZYOobCqM4+fv677PkxYeC4f6RaMerdqdsjFVuwm7Zn3uoZu1l5RenUbo5oYHxkgk1cCqZ23mFvr0udsD8t1AnfvNDonfrQnEN9cg02HcYGKq7J/Wy72fvwb3usE1+e9QzaINQLM4rt3O1k7xmw4hn8c5Z9rqSkpKSkpKSkpKSkpKSkpKSkpKSkpKSkpKSkpNuOenr+B22CbRXgEYASAAAAAElFTkSuQmCC;fontFamily=Source Sans 3;fontColor=#CCCCCC;" parent="jvZWQ-nRbjcO1A-R8Qbo-73" vertex="1">
          <mxGeometry x="11" y="8.370000000000005" width="98" height="23.26" as="geometry" />
        </mxCell>
        <mxCell id="jvZWQ-nRbjcO1A-R8Qbo-113" value="" style="ellipse;shape=cloud;whiteSpace=wrap;html=1;strokeColor=#FFFFFF;" vertex="1" parent="jvZWQ-nRbjcO1A-R8Qbo-73">
          <mxGeometry x="95" y="59.99999999999994" width="25" height="20" as="geometry" />
        </mxCell>
        <mxCell id="jvZWQ-nRbjcO1A-R8Qbo-77" value="" style="sketch=0;pointerEvents=1;shadow=0;dashed=0;html=1;strokeColor=none;labelPosition=center;verticalLabelPosition=bottom;verticalAlign=top;outlineConnect=0;align=center;shape=mxgraph.office.security.key_permissions;fillColor=#DA4026;" vertex="1" parent="1">
          <mxGeometry x="168" y="270" width="10" height="18.8" as="geometry" />
        </mxCell>
        <mxCell id="jvZWQ-nRbjcO1A-R8Qbo-78" value="" style="sketch=0;pointerEvents=1;shadow=0;dashed=0;html=1;strokeColor=none;labelPosition=center;verticalLabelPosition=bottom;verticalAlign=top;outlineConnect=0;align=center;shape=mxgraph.office.security.key_permissions;fillColor=#2072B8;" vertex="1" parent="1">
          <mxGeometry x="130" y="281.67" width="17" height="33" as="geometry" />
        </mxCell>
        <mxCell id="jvZWQ-nRbjcO1A-R8Qbo-88" value="" style="ellipse;shape=cloud;whiteSpace=wrap;html=1;strokeColor=#FFFFFF;" vertex="1" parent="1">
          <mxGeometry x="292.35" y="265.82" width="40" height="28.17" as="geometry" />
        </mxCell>
        <mxCell id="jvZWQ-nRbjcO1A-R8Qbo-94" value="" style="ellipse;shape=cloud;whiteSpace=wrap;html=1;strokeColor=#FFFFFF;" vertex="1" parent="1">
          <mxGeometry x="520" y="260" width="30" height="20" as="geometry" />
        </mxCell>
        <mxCell id="jvZWQ-nRbjcO1A-R8Qbo-102" value="" style="ellipse;shape=cloud;whiteSpace=wrap;html=1;strokeColor=#FFFFFF;" vertex="1" parent="1">
          <mxGeometry x="590" y="249.39" width="25" height="20" as="geometry" />
        </mxCell>
        <mxCell id="jvZWQ-nRbjcO1A-R8Qbo-103" value="" style="ellipse;shape=cloud;whiteSpace=wrap;html=1;strokeColor=#FFFFFF;" vertex="1" parent="1">
          <mxGeometry x="645" y="208.68" width="35" height="29.39" as="geometry" />
        </mxCell>
        <mxCell id="jvZWQ-nRbjcO1A-R8Qbo-107" value="" style="ellipse;shape=cloud;whiteSpace=wrap;html=1;strokeColor=#FFFFFF;" vertex="1" parent="1">
          <mxGeometry x="605" y="268.16999999999996" width="25" height="20" as="geometry" />
        </mxCell>
        <mxCell id="jvZWQ-nRbjcO1A-R8Qbo-109" value="" style="group" vertex="1" connectable="0" parent="1">
          <mxGeometry x="210" y="180" width="150" height="70" as="geometry" />
        </mxCell>
        <mxCell id="jvZWQ-nRbjcO1A-R8Qbo-68" value="" style="shape=callout;whiteSpace=wrap;html=1;perimeter=calloutPerimeter;rounded=1;fillColor=#CCCCCC;strokeColor=#CCCCCC;" vertex="1" parent="jvZWQ-nRbjcO1A-R8Qbo-109">
          <mxGeometry width="150" height="70" as="geometry" />
        </mxCell>
        <mxCell id="jvZWQ-nRbjcO1A-R8Qbo-83" value="" style="shape=image;verticalLabelPosition=bottom;labelBackgroundColor=default;verticalAlign=top;aspect=fixed;imageAspect=0;image=https://upload.wikimedia.org/wikipedia/commons/thumb/8/85/Microsoft_365_logo.png/1200px-Microsoft_365_logo.png;" vertex="1" parent="jvZWQ-nRbjcO1A-R8Qbo-109">
          <mxGeometry x="10" y="10" width="122.35066666666667" height="20.188" as="geometry" />
        </mxCell>
        <mxCell id="jvZWQ-nRbjcO1A-R8Qbo-111" value="" style="sketch=0;pointerEvents=1;shadow=0;dashed=0;html=1;strokeColor=none;fillColor=#CCCCCC;labelPosition=center;verticalLabelPosition=bottom;outlineConnect=0;verticalAlign=top;align=center;shape=mxgraph.office.clouds.cloud_sharepoint;" vertex="1" parent="1">
          <mxGeometry x="370" y="258.17" width="101" height="61" as="geometry" />
        </mxCell>
        <mxCell id="2b8aMbZm-iuNf0F6zws4-16" value="Authentication" style="text;html=1;align=center;verticalAlign=middle;resizable=0;points=[];autosize=1;strokeColor=none;fillColor=#CCCCCC;fontStyle=2;fontFamily=Source Sans 3;fontSize=10;fontColor=#333333;rounded=1;" parent="1" vertex="1">
          <mxGeometry x="240" y="160" width="90" height="30" as="geometry" />
        </mxCell>
        <mxCell id="jvZWQ-nRbjcO1A-R8Qbo-112" value="Authorization" style="text;html=1;align=center;verticalAlign=middle;resizable=0;points=[];autosize=1;strokeColor=none;fillColor=#CCCCCC;fontStyle=2;fontFamily=Source Sans 3;fontSize=10;fontColor=#333333;rounded=1;" vertex="1" parent="1">
          <mxGeometry x="539" y="150" width="90" height="30" as="geometry" />
        </mxCell>
        <mxCell id="jvZWQ-nRbjcO1A-R8Qbo-35" value="" style="group;strokeColor=none;fontColor=#CCCCCC;" vertex="1" connectable="0" parent="1">
          <mxGeometry x="690" y="156.43" width="96.94000000000005" height="40" as="geometry" />
        </mxCell>
        <mxCell id="2b8aMbZm-iuNf0F6zws4-3" value="Web App 1" style="rounded=1;whiteSpace=wrap;html=1;fontFamily=Source Sans 3;fillColor=#778CA1;strokeColor=none;fontColor=#CCCCCC;" parent="jvZWQ-nRbjcO1A-R8Qbo-35" vertex="1">
          <mxGeometry width="90" height="40" as="geometry" />
        </mxCell>
        <mxCell id="jvZWQ-nRbjcO1A-R8Qbo-36" value="" style="group;fontColor=#CCCCCC;strokeColor=none;" vertex="1" connectable="0" parent="1">
          <mxGeometry x="680" y="299.21000000000004" width="96.94000000000005" height="47.57" as="geometry" />
        </mxCell>
        <mxCell id="jvZWQ-nRbjcO1A-R8Qbo-37" value="Web App 2" style="rounded=1;whiteSpace=wrap;html=1;fontFamily=Source Sans 3;fillColor=#778CA1;strokeColor=none;fontColor=#CCCCCC;" vertex="1" parent="jvZWQ-nRbjcO1A-R8Qbo-36">
          <mxGeometry width="90" height="40" as="geometry" />
        </mxCell>
        <mxCell id="jvZWQ-nRbjcO1A-R8Qbo-64" value="" style="sketch=0;pointerEvents=1;shadow=0;dashed=0;html=1;strokeColor=none;fillColor=#505050;labelPosition=center;verticalLabelPosition=bottom;verticalAlign=top;outlineConnect=0;align=center;shape=mxgraph.office.security.lock_with_key_security_orange;" vertex="1" parent="jvZWQ-nRbjcO1A-R8Qbo-36">
          <mxGeometry x="-10" y="20" width="20" height="27.57" as="geometry" />
        </mxCell>
        <mxCell id="jvZWQ-nRbjcO1A-R8Qbo-63" value="" style="sketch=0;pointerEvents=1;shadow=0;dashed=0;html=1;strokeColor=none;fillColor=#505050;labelPosition=center;verticalLabelPosition=bottom;verticalAlign=top;outlineConnect=0;align=center;shape=mxgraph.office.security.lock_with_key_security_blue;" vertex="1" parent="1">
          <mxGeometry x="680" y="176" width="20" height="27.57" as="geometry" />
        </mxCell>
        <mxCell id="jvZWQ-nRbjcO1A-R8Qbo-106" value="" style="ellipse;shape=cloud;whiteSpace=wrap;html=1;strokeColor=#FFFFFF;" vertex="1" parent="1">
          <mxGeometry x="625" y="290" width="35" height="29.39" as="geometry" />
        </mxCell>
        <mxCell id="jvZWQ-nRbjcO1A-R8Qbo-38" value="" style="verticalLabelPosition=bottom;html=1;verticalAlign=top;strokeWidth=1;align=center;outlineConnect=0;dashed=0;outlineConnect=0;shape=mxgraph.aws3d.application;fillColor=#4286c5;strokeColor=#CCCCCC;aspect=fixed;fontFamily=Source Sans 3;fontColor=#CCCCCC;" vertex="1" parent="1">
          <mxGeometry x="760" y="290" width="16.94" height="18.8" as="geometry" />
        </mxCell>
        <mxCell id="2b8aMbZm-iuNf0F6zws4-4" value="" style="verticalLabelPosition=bottom;html=1;verticalAlign=top;strokeWidth=1;align=center;outlineConnect=0;dashed=0;outlineConnect=0;shape=mxgraph.aws3d.application;fillColor=#4286c5;strokeColor=#57A2D8;aspect=fixed;fontFamily=Source Sans 3;fontColor=#CCCCCC;" parent="1" vertex="1">
          <mxGeometry x="770" y="146.43" width="16.94" height="18.8" as="geometry" />
        </mxCell>
        <mxCell id="jvZWQ-nRbjcO1A-R8Qbo-114" value="" style="ellipse;shape=cloud;whiteSpace=wrap;html=1;strokeColor=#FFFFFF;" vertex="1" parent="1">
          <mxGeometry x="645" y="258.16999999999996" width="25" height="20" as="geometry" />
        </mxCell>
        <mxCell id="jvZWQ-nRbjcO1A-R8Qbo-116" value="" style="ellipse;shape=cloud;whiteSpace=wrap;html=1;strokeColor=#FFFFFF;" vertex="1" parent="1">
          <mxGeometry x="713.47" y="258.17" width="26.53" height="21.83" as="geometry" />
        </mxCell>
        <mxCell id="jvZWQ-nRbjcO1A-R8Qbo-117" value="" style="ellipse;shape=cloud;whiteSpace=wrap;html=1;strokeColor=#FFFFFF;" vertex="1" parent="1">
          <mxGeometry x="746.94" y="240" width="33.06" height="28.17" as="geometry" />
        </mxCell>
        <mxCell id="jvZWQ-nRbjcO1A-R8Qbo-118" value="" style="group;strokeColor=none;fontColor=#CCCCCC;" vertex="1" connectable="0" parent="1">
          <mxGeometry x="800" y="218.68" width="96.94000000000005" height="40" as="geometry" />
        </mxCell>
        <mxCell id="jvZWQ-nRbjcO1A-R8Qbo-119" value="Web App 3" style="rounded=1;whiteSpace=wrap;html=1;fontFamily=Source Sans 3;fillColor=#778CA1;strokeColor=none;fontColor=#CCCCCC;" vertex="1" parent="jvZWQ-nRbjcO1A-R8Qbo-118">
          <mxGeometry width="90" height="40" as="geometry" />
        </mxCell>
        <mxCell id="jvZWQ-nRbjcO1A-R8Qbo-120" value="" style="sketch=0;pointerEvents=1;shadow=0;dashed=0;html=1;strokeColor=none;fillColor=#505050;labelPosition=center;verticalLabelPosition=bottom;verticalAlign=top;outlineConnect=0;align=center;shape=mxgraph.office.security.lock_with_key_security_blue;" vertex="1" parent="1">
          <mxGeometry x="790" y="238.25" width="20" height="27.57" as="geometry" />
        </mxCell>
        <mxCell id="jvZWQ-nRbjcO1A-R8Qbo-121" value="" style="verticalLabelPosition=bottom;html=1;verticalAlign=top;strokeWidth=1;align=center;outlineConnect=0;dashed=0;outlineConnect=0;shape=mxgraph.aws3d.application;fillColor=#4286c5;strokeColor=#57A2D8;aspect=fixed;fontFamily=Source Sans 3;fontColor=#CCCCCC;" vertex="1" parent="1">
          <mxGeometry x="880" y="208.68" width="16.94" height="18.8" as="geometry" />
        </mxCell>
        <mxCell id="jvZWQ-nRbjcO1A-R8Qbo-122" value="" style="sketch=0;pointerEvents=1;shadow=0;dashed=0;html=1;strokeColor=none;labelPosition=center;verticalLabelPosition=bottom;verticalAlign=top;outlineConnect=0;align=center;shape=mxgraph.office.security.key_permissions;fillColor=#2072B8;" vertex="1" parent="1">
          <mxGeometry x="178" y="270" width="10" height="18.8" as="geometry" />
        </mxCell>
        <mxCell id="jvZWQ-nRbjcO1A-R8Qbo-127" value="" style="ellipse;shape=cloud;whiteSpace=wrap;html=1;fillColor=#CCCCCC;strokeColor=#CCCCCC;" vertex="1" parent="1">
          <mxGeometry x="250" y="254.39" width="35" height="29.39" as="geometry" />
        </mxCell>
        <mxCell id="jvZWQ-nRbjcO1A-R8Qbo-129" value="" style="ellipse;shape=cloud;whiteSpace=wrap;html=1;strokeColor=#FFFFFF;" vertex="1" parent="1">
          <mxGeometry x="320" y="294.08" width="40" height="28.17" as="geometry" />
        </mxCell>
        <mxCell id="jvZWQ-nRbjcO1A-R8Qbo-130" value="" style="ellipse;shape=cloud;whiteSpace=wrap;html=1;strokeColor=#FFFFFF;" vertex="1" parent="1">
          <mxGeometry x="200.00000000000003" y="265.82" width="40" height="28.17" as="geometry" />
        </mxCell>
        <mxCell id="jvZWQ-nRbjcO1A-R8Qbo-132" value="" style="ellipse;shape=cloud;whiteSpace=wrap;html=1;strokeColor=#FFFFFF;" vertex="1" parent="1">
          <mxGeometry x="680" y="249.39000000000001" width="26.53" height="21.83" as="geometry" />
        </mxCell>
        <mxCell id="jvZWQ-nRbjcO1A-R8Qbo-133" value="" style="ellipse;shape=cloud;whiteSpace=wrap;html=1;strokeColor=#FFFFFF;" vertex="1" parent="1">
          <mxGeometry x="480" y="272.25" width="26.53" height="21.83" as="geometry" />
        </mxCell>
        <mxCell id="jvZWQ-nRbjcO1A-R8Qbo-134" value="" style="ellipse;shape=cloud;whiteSpace=wrap;html=1;fillColor=#CCCCCC;strokeColor=#CCCCCC;" vertex="1" parent="1">
          <mxGeometry x="550" y="242.04" width="30" height="20" as="geometry" />
        </mxCell>
      </root>
    </mxGraphModel>
  </diagram>
</mxfile>
